<?xml version="1.0" encoding="UTF-8" standalone="no"?>
<!DOCTYPE svg PUBLIC "-//W3C//DTD SVG 1.1//EN" "http://www.w3.org/Graphics/SVG/1.1/DTD/svg11.dtd">
<!-- Created with Vectornator (http://vectornator.io/) -->
<svg height="15px" stroke-miterlimit="10" style="fill-rule:nonzero;clip-rule:evenodd;stroke-linecap:round;stroke-linejoin:round;" version="1.1" viewBox="0 0 16 15" width="100%" xml:space="preserve" xmlns="http://www.w3.org/2000/svg" xmlns:vectornator="http://vectornator.io" xmlns:xlink="http://www.w3.org/1999/xlink">
<defs/>
<g id="Untitled" vectornator:layerName="Untitled">
<path d="M9.75 7.713L8.244 7.713L8.244 5.359C8.244 5.083 8.02 4.859 7.744 4.859L7.65 4.859C7.374 4.859 7.15 5.083 7.15 5.359L7.15 8.306C7.15 8.582 7.374 8.806 7.65 8.806L7.744 8.806C7.745 8.806 7.746 8.805 7.747 8.805C7.748 8.805 7.749 8.807 7.75 8.807L9.75 8.807C10.026 8.807 10.25 8.583 10.25 8.307L10.25 8.213C10.25 7.937 10.026 7.713 9.75 7.713ZM9.75 2.45L6.25 2.45C4.43 2.45 2.95 3.93 2.95 5.75L2.95 9.25C2.95 11.07 4.43 12.55 6.25 12.55L9.75 12.55C11.57 12.55 13.05 11.07 13.05 9.25L13.05 5.75C13.05 3.93 11.57 2.45 9.75 2.45ZM11.75 9.25C11.75 10.355 10.855 11.25 9.75 11.25L6.25 11.25C5.146 11.25 4.25 10.355 4.25 9.25L4.25 5.75C4.25 4.646 5.146 3.75 6.25 3.75L9.75 3.75C10.855 3.75 11.75 4.646 11.75 5.75L11.75 9.25Z" fill="#8696a0" fill-rule="nonzero" opacity="1" stroke="none" vectornator:layerName="path"/>
</g>
</svg>
